Genre:Horror | Thriller
Language:English  http://www.imdb.com/title/tt1362103/
Source:1080p BluRay x264-KaKa


Format : Matroska
File size : 1.48 GiB
Duration : 1h 22mn
Overall bit rate : 2 572 Kbps


Video
Format settings, CABAC : Yes
Format settings, ReFrames : 4 frames
Format settings, GOP : M=4, N=16
Codec ID : V_MPEG4/ISO/AVC
Duration : 1h 22mn
Bit rate : 2 200 Kbps
Width : 1 280 pixels
Height : 544 pixels
Display aspect ratio : 2.35:1
Frame rate mode : Variable
Frame rate : 25.000 fps
Color space : YUV
Chroma subsampling : 4:2:0
Bit depth : 8 bits
Scan type : Progressive
Bits/(Pixel*Frame) : 0.126
Stream size : 1.23 GiB (83%)
Writing library : x264


Audio
ID : 2
Format : AC-3
Format/Info : Audio Coding 3
Mode extension : CM (complete main)
Codec ID : A_AC3
Duration : 1h 22mn
Bit rate mode : Constant
Bit rate : 384 Kbps
Channel(s) : 6 channels
Channel positions : Front: L C R, Side: L R, LFE
Sampling rate : 48.0 KHz
Bit depth : 16 bits
Video delay : -1mn 5s
Stream size : 226 MiB (15%)
Language : English



Plot:
A mysterious new girl arrives in posh suburban neighborhood and quickly sets out to terrorize the town. As she starts breaking into homes and torturing the occupants, they begin to realize that she isn't just another girl next door
 
http://shareimage.org/images/edpke3dgmk5othabh650.png 
http://shareimage.org/images/k4ri4xdilv7ufqepwje8.png 
http://shareimage.org/images/dbt9ib26t59mh7x5w8w3.png 
http://shareimage.org/images/v6wgu6rcylvt0danb1h9.png 
http://shareimage.org/images/64xdyx5plpglx6anhn.png